# xmcd
#
# Track frame offsets: 
#        150
#        13737
#        27545
#        45282
#        60545
#        77370
#        92182
#        108632
#        121882
#        136620
#        151295
#        165957
#
# Disc length: 2430 seconds
#
# Revision: 4
# Processed by: cddbd v1.5.2PL0 Copyright (c) Steve Scherf et al.
# Submitted via: ExactAudioCopy v1.0b3
#
DISCID=85097c0c
DTITLE=Nolans - I'm In The Mood For Dancing
DYEAR=1996
DGENRE=Soul
TTITLE0=I'm In The Mood For Dancing
TTITLE1=Attention To Me
TTITLE2=Don't Love Me Too Hard
TTITLE3=Chemistry
TTITLE4=Dragonfly
TTITLE5=Crashin' Down
TTITLE6=Sexy Music
TTITLE7=Gotta Pull Myself Together
TTITLE8=Every Home Should Have One
TTITLE9=Who's Gonna Rock You
TTITLE10=Spirit, Body And Soul
TTITLE11=Don't Make Waves
EXTD=YEAR: 1996
EXTT0=
EXTT1=
EXTT2=
EXTT3=
EXTT4=
EXTT5=
EXTT6=
EXTT7=
EXTT8=
EXTT9=
EXTT10=
EXTT11=
PLAYORDER=
